<mxfile host="app.diagrams.net" agent="Mozilla/5.0 (Windows NT 10.0; Win64; x64) AppleWebKit/537.36 (KHTML, like Gecko) Chrome/138.0.0.0 Safari/537.36" version="28.1.2">
  <diagram name="第 1 页" id="T17wYbIey6pZkxcrSwsM">
    <mxGraphModel dx="1188" dy="626" grid="1" gridSize="10" guides="1" tooltips="1" connect="1" arrows="1" fold="1" page="1" pageScale="1" pageWidth="827" pageHeight="1169" math="0" shadow="0">
      <root>
        <mxCell id="0" />
        <mxCell id="1" parent="0" />
        <mxCell id="xh2tAUFrgbrYJssjRWNV-33" value="" style="rounded=0;whiteSpace=wrap;html=1;dashed=1;" vertex="1" parent="1">
          <mxGeometry x="543" y="620" width="130" height="390" as="geometry" />
        </mxCell>
        <mxCell id="xh2tAUFrgbrYJssjRWNV-26" value="" style="rounded=1;whiteSpace=wrap;html=1;dashed=1;" vertex="1" parent="1">
          <mxGeometry x="140" y="898" width="270" height="110" as="geometry" />
        </mxCell>
        <mxCell id="xh2tAUFrgbrYJssjRWNV-36" style="edgeStyle=orthogonalEdgeStyle;rounded=0;orthogonalLoop=1;jettySize=auto;html=1;entryX=0;entryY=0.5;entryDx=0;entryDy=0;" edge="1" parent="1" source="xh2tAUFrgbrYJssjRWNV-25" target="xh2tAUFrgbrYJssjRWNV-30">
          <mxGeometry relative="1" as="geometry" />
        </mxCell>
        <mxCell id="xh2tAUFrgbrYJssjRWNV-39" value="&lt;span style=&quot;color: rgba(0, 0, 0, 0); font-family: monospace; font-size: 0px; text-align: start; background-color: rgb(236, 236, 236);&quot;&gt;%3CmxGraphModel%3E%3Croot%3E%3CmxCell%20id%3D%220%22%2F%3E%3CmxCell%20id%3D%221%22%20parent%3D%220%22%2F%3E%3CmxCell%20id%3D%222%22%20value%3D%22traceId%22%20style%3D%22edgeLabel%3Bhtml%3D1%3Balign%3Dcenter%3BverticalAlign%3Dmiddle%3Bresizable%3D0%3Bpoints%3D%5B%5D%3B%22%20vertex%3D%221%22%20connectable%3D%220%22%20parent%3D%221%22%3E%3CmxGeometry%20x%3D%22450%22%20y%3D%22678%22%20as%3D%22geometry%22%2F%3E%3C%2FmxCell%3E%3C%2Froot%3E%3C%2FmxGraphModel%3E&lt;/span&gt;" style="edgeLabel;html=1;align=center;verticalAlign=middle;resizable=0;points=[];" vertex="1" connectable="0" parent="xh2tAUFrgbrYJssjRWNV-36">
          <mxGeometry x="-0.5375" y="1" relative="1" as="geometry">
            <mxPoint as="offset" />
          </mxGeometry>
        </mxCell>
        <mxCell id="xh2tAUFrgbrYJssjRWNV-41" value="&lt;span style=&quot;color: rgba(0, 0, 0, 0); font-family: monospace; font-size: 0px; text-align: start; background-color: rgb(236, 236, 236);&quot;&gt;%3CmxGraphModel%3E%3Croot%3E%3CmxCell%20id%3D%220%22%2F%3E%3CmxCell%20id%3D%221%22%20parent%3D%220%22%2F%3E%3CmxCell%20id%3D%222%22%20value%3D%22trace%22%20style%3D%22edgeLabel%3Bhtml%3D1%3Balign%3Dcenter%3BverticalAlign%3Dmiddle%3Bresizable%3D0%3Bpoints%3D%5B%5D%3B%22%20vertex%3D%221%22%20connectable%3D%220%22%20parent%3D%221%22%3E%3CmxGeometry%20x%3D%22450%22%20y%3D%22678%22%20as%3D%22geometry%22%2F%3E%3C%2FmxCell%3E%3C%2Froot%3E%3C%2FmxGraphModel%3E&lt;/span&gt;" style="edgeLabel;html=1;align=center;verticalAlign=middle;resizable=0;points=[];" vertex="1" connectable="0" parent="xh2tAUFrgbrYJssjRWNV-36">
          <mxGeometry x="-0.5687" y="-2" relative="1" as="geometry">
            <mxPoint y="-1" as="offset" />
          </mxGeometry>
        </mxCell>
        <mxCell id="xh2tAUFrgbrYJssjRWNV-25" value="" style="rounded=1;whiteSpace=wrap;html=1;dashed=1;" vertex="1" parent="1">
          <mxGeometry x="140" y="755" width="270" height="110" as="geometry" />
        </mxCell>
        <mxCell id="xh2tAUFrgbrYJssjRWNV-23" value="" style="rounded=1;whiteSpace=wrap;html=1;dashed=1;" vertex="1" parent="1">
          <mxGeometry x="140" y="620" width="270" height="110" as="geometry" />
        </mxCell>
        <mxCell id="4-_EjWfgfO3YhF2xqK2x-4" style="edgeStyle=orthogonalEdgeStyle;rounded=0;orthogonalLoop=1;jettySize=auto;html=1;entryX=0.5;entryY=0;entryDx=0;entryDy=0;" parent="1" source="4-_EjWfgfO3YhF2xqK2x-1" target="4-_EjWfgfO3YhF2xqK2x-2" edge="1">
          <mxGeometry relative="1" as="geometry" />
        </mxCell>
        <mxCell id="4-_EjWfgfO3YhF2xqK2x-1" value="A" style="rounded=0;whiteSpace=wrap;html=1;" parent="1" vertex="1">
          <mxGeometry x="130" y="140" width="120" height="60" as="geometry" />
        </mxCell>
        <mxCell id="4-_EjWfgfO3YhF2xqK2x-5" style="edgeStyle=orthogonalEdgeStyle;rounded=0;orthogonalLoop=1;jettySize=auto;html=1;entryX=0.5;entryY=0;entryDx=0;entryDy=0;fillColor=#f8cecc;strokeColor=#b85450;" parent="1" source="4-_EjWfgfO3YhF2xqK2x-2" target="4-_EjWfgfO3YhF2xqK2x-3" edge="1">
          <mxGeometry relative="1" as="geometry" />
        </mxCell>
        <mxCell id="4-_EjWfgfO3YhF2xqK2x-8" style="edgeStyle=orthogonalEdgeStyle;rounded=0;orthogonalLoop=1;jettySize=auto;html=1;dashed=1;" parent="1" source="4-_EjWfgfO3YhF2xqK2x-2" target="4-_EjWfgfO3YhF2xqK2x-6" edge="1">
          <mxGeometry relative="1" as="geometry" />
        </mxCell>
        <mxCell id="4-_EjWfgfO3YhF2xqK2x-11" value="traceId" style="edgeLabel;html=1;align=center;verticalAlign=middle;resizable=0;points=[];" parent="4-_EjWfgfO3YhF2xqK2x-8" vertex="1" connectable="0">
          <mxGeometry x="-0.32" y="1" relative="1" as="geometry">
            <mxPoint as="offset" />
          </mxGeometry>
        </mxCell>
        <mxCell id="4-_EjWfgfO3YhF2xqK2x-2" value="B" style="rounded=0;whiteSpace=wrap;html=1;" parent="1" vertex="1">
          <mxGeometry x="130" y="270" width="120" height="60" as="geometry" />
        </mxCell>
        <mxCell id="xh2tAUFrgbrYJssjRWNV-1" style="edgeStyle=orthogonalEdgeStyle;rounded=0;orthogonalLoop=1;jettySize=auto;html=1;" edge="1" parent="1" source="4-_EjWfgfO3YhF2xqK2x-3">
          <mxGeometry relative="1" as="geometry">
            <mxPoint x="360" y="440" as="targetPoint" />
          </mxGeometry>
        </mxCell>
        <mxCell id="xh2tAUFrgbrYJssjRWNV-2" value="不采样" style="edgeLabel;html=1;align=center;verticalAlign=middle;resizable=0;points=[];" vertex="1" connectable="0" parent="xh2tAUFrgbrYJssjRWNV-1">
          <mxGeometry x="-0.0045" y="4" relative="1" as="geometry">
            <mxPoint x="-2" y="-4" as="offset" />
          </mxGeometry>
        </mxCell>
        <mxCell id="4-_EjWfgfO3YhF2xqK2x-3" value="C" style="rounded=0;whiteSpace=wrap;html=1;fillColor=#f8cecc;strokeColor=#b85450;" parent="1" vertex="1">
          <mxGeometry x="130" y="410" width="120" height="60" as="geometry" />
        </mxCell>
        <mxCell id="4-_EjWfgfO3YhF2xqK2x-6" value="otel-collector" style="ellipse;whiteSpace=wrap;html=1;aspect=fixed;" parent="1" vertex="1">
          <mxGeometry x="500" y="260" width="80" height="80" as="geometry" />
        </mxCell>
        <mxCell id="4-_EjWfgfO3YhF2xqK2x-7" style="edgeStyle=orthogonalEdgeStyle;rounded=0;orthogonalLoop=1;jettySize=auto;html=1;entryX=0;entryY=0.325;entryDx=0;entryDy=0;entryPerimeter=0;dashed=1;" parent="1" source="4-_EjWfgfO3YhF2xqK2x-1" target="4-_EjWfgfO3YhF2xqK2x-6" edge="1">
          <mxGeometry relative="1" as="geometry" />
        </mxCell>
        <mxCell id="4-_EjWfgfO3YhF2xqK2x-10" value="traceId" style="edgeLabel;html=1;align=center;verticalAlign=middle;resizable=0;points=[];" parent="4-_EjWfgfO3YhF2xqK2x-7" vertex="1" connectable="0">
          <mxGeometry x="-0.5464" y="1" relative="1" as="geometry">
            <mxPoint as="offset" />
          </mxGeometry>
        </mxCell>
        <mxCell id="4-_EjWfgfO3YhF2xqK2x-13" value="调用" style="text;html=1;align=center;verticalAlign=middle;resizable=0;points=[];autosize=1;strokeColor=none;fillColor=none;" parent="1" vertex="1">
          <mxGeometry x="180" y="220" width="50" height="30" as="geometry" />
        </mxCell>
        <mxCell id="4-_EjWfgfO3YhF2xqK2x-14" value="调用抛错" style="text;html=1;align=center;verticalAlign=middle;resizable=0;points=[];autosize=1;strokeColor=none;fillColor=none;" parent="1" vertex="1">
          <mxGeometry x="180" y="358" width="70" height="30" as="geometry" />
        </mxCell>
        <mxCell id="xh2tAUFrgbrYJssjRWNV-4" value="❌" style="text;html=1;align=center;verticalAlign=middle;resizable=0;points=[];autosize=1;strokeColor=none;fillColor=none;" vertex="1" parent="1">
          <mxGeometry x="290" y="400" width="40" height="30" as="geometry" />
        </mxCell>
        <mxCell id="xh2tAUFrgbrYJssjRWNV-5" style="edgeStyle=orthogonalEdgeStyle;rounded=0;orthogonalLoop=1;jettySize=auto;html=1;entryX=0.5;entryY=0;entryDx=0;entryDy=0;" edge="1" parent="1" source="xh2tAUFrgbrYJssjRWNV-6" target="xh2tAUFrgbrYJssjRWNV-10">
          <mxGeometry relative="1" as="geometry" />
        </mxCell>
        <mxCell id="xh2tAUFrgbrYJssjRWNV-29" style="edgeStyle=orthogonalEdgeStyle;rounded=0;orthogonalLoop=1;jettySize=auto;html=1;exitX=1;exitY=0.5;exitDx=0;exitDy=0;" edge="1" parent="1" source="xh2tAUFrgbrYJssjRWNV-6" target="xh2tAUFrgbrYJssjRWNV-20">
          <mxGeometry relative="1" as="geometry" />
        </mxCell>
        <mxCell id="xh2tAUFrgbrYJssjRWNV-6" value="A" style="rounded=0;whiteSpace=wrap;html=1;" vertex="1" parent="1">
          <mxGeometry x="160" y="650" width="120" height="60" as="geometry" />
        </mxCell>
        <mxCell id="xh2tAUFrgbrYJssjRWNV-7" style="edgeStyle=orthogonalEdgeStyle;rounded=0;orthogonalLoop=1;jettySize=auto;html=1;entryX=0.5;entryY=0;entryDx=0;entryDy=0;fillColor=#f8cecc;strokeColor=#b85450;" edge="1" parent="1" source="xh2tAUFrgbrYJssjRWNV-10" target="xh2tAUFrgbrYJssjRWNV-13">
          <mxGeometry relative="1" as="geometry" />
        </mxCell>
        <mxCell id="xh2tAUFrgbrYJssjRWNV-28" style="edgeStyle=orthogonalEdgeStyle;rounded=0;orthogonalLoop=1;jettySize=auto;html=1;exitX=1;exitY=0.5;exitDx=0;exitDy=0;entryX=0;entryY=0.5;entryDx=0;entryDy=0;" edge="1" parent="1" source="xh2tAUFrgbrYJssjRWNV-10" target="xh2tAUFrgbrYJssjRWNV-21">
          <mxGeometry relative="1" as="geometry" />
        </mxCell>
        <mxCell id="xh2tAUFrgbrYJssjRWNV-10" value="B" style="rounded=0;whiteSpace=wrap;html=1;" vertex="1" parent="1">
          <mxGeometry x="160" y="780" width="120" height="60" as="geometry" />
        </mxCell>
        <mxCell id="xh2tAUFrgbrYJssjRWNV-27" style="edgeStyle=orthogonalEdgeStyle;rounded=0;orthogonalLoop=1;jettySize=auto;html=1;exitX=1;exitY=0.5;exitDx=0;exitDy=0;entryX=0;entryY=0.5;entryDx=0;entryDy=0;" edge="1" parent="1" source="xh2tAUFrgbrYJssjRWNV-13" target="xh2tAUFrgbrYJssjRWNV-22">
          <mxGeometry relative="1" as="geometry" />
        </mxCell>
        <mxCell id="xh2tAUFrgbrYJssjRWNV-13" value="C" style="rounded=0;whiteSpace=wrap;html=1;fillColor=#f8cecc;strokeColor=#b85450;" vertex="1" parent="1">
          <mxGeometry x="160" y="920" width="120" height="60" as="geometry" />
        </mxCell>
        <mxCell id="xh2tAUFrgbrYJssjRWNV-14" value="otel-collector" style="ellipse;whiteSpace=wrap;html=1;aspect=fixed;" vertex="1" parent="1">
          <mxGeometry x="570" y="650" width="80" height="80" as="geometry" />
        </mxCell>
        <mxCell id="xh2tAUFrgbrYJssjRWNV-17" value="调用" style="text;html=1;align=center;verticalAlign=middle;resizable=0;points=[];autosize=1;strokeColor=none;fillColor=none;" vertex="1" parent="1">
          <mxGeometry x="210" y="730" width="50" height="30" as="geometry" />
        </mxCell>
        <mxCell id="xh2tAUFrgbrYJssjRWNV-18" value="调用抛错" style="text;html=1;align=center;verticalAlign=middle;resizable=0;points=[];autosize=1;strokeColor=none;fillColor=none;" vertex="1" parent="1">
          <mxGeometry x="210" y="868" width="70" height="30" as="geometry" />
        </mxCell>
        <mxCell id="xh2tAUFrgbrYJssjRWNV-35" style="edgeStyle=orthogonalEdgeStyle;rounded=0;orthogonalLoop=1;jettySize=auto;html=1;" edge="1" parent="1" source="xh2tAUFrgbrYJssjRWNV-20">
          <mxGeometry relative="1" as="geometry">
            <mxPoint x="570" y="800" as="targetPoint" />
            <Array as="points">
              <mxPoint x="485" y="680" />
              <mxPoint x="485" y="800" />
              <mxPoint x="570" y="800" />
            </Array>
          </mxGeometry>
        </mxCell>
        <mxCell id="xh2tAUFrgbrYJssjRWNV-38" value="trace" style="edgeLabel;html=1;align=center;verticalAlign=middle;resizable=0;points=[];" vertex="1" connectable="0" parent="xh2tAUFrgbrYJssjRWNV-35">
          <mxGeometry x="-0.6529" y="2" relative="1" as="geometry">
            <mxPoint as="offset" />
          </mxGeometry>
        </mxCell>
        <mxCell id="xh2tAUFrgbrYJssjRWNV-20" value="otel-collector" style="ellipse;whiteSpace=wrap;html=1;aspect=fixed;" vertex="1" parent="1">
          <mxGeometry x="320" y="640" width="80" height="80" as="geometry" />
        </mxCell>
        <mxCell id="xh2tAUFrgbrYJssjRWNV-21" value="otel-collector" style="ellipse;whiteSpace=wrap;html=1;aspect=fixed;" vertex="1" parent="1">
          <mxGeometry x="320" y="770" width="80" height="80" as="geometry" />
        </mxCell>
        <mxCell id="xh2tAUFrgbrYJssjRWNV-37" style="edgeStyle=orthogonalEdgeStyle;rounded=0;orthogonalLoop=1;jettySize=auto;html=1;entryX=0.004;entryY=0.612;entryDx=0;entryDy=0;entryPerimeter=0;" edge="1" parent="1" source="xh2tAUFrgbrYJssjRWNV-22" target="xh2tAUFrgbrYJssjRWNV-30">
          <mxGeometry relative="1" as="geometry" />
        </mxCell>
        <mxCell id="xh2tAUFrgbrYJssjRWNV-42" value="&lt;span style=&quot;color: rgba(0, 0, 0, 0); font-family: monospace; font-size: 0px; text-align: start; background-color: rgb(236, 236, 236);&quot;&gt;%3CmxGraphModel%3E%3Croot%3E%3CmxCell%20id%3D%220%22%2F%3E%3CmxCell%20id%3D%221%22%20parent%3D%220%22%2F%3E%3CmxCell%20id%3D%222%22%20value%3D%22trace%22%20style%3D%22edgeLabel%3Bhtml%3D1%3Balign%3Dcenter%3BverticalAlign%3Dmiddle%3Bresizable%3D0%3Bpoints%3D%5B%5D%3B%22%20vertex%3D%221%22%20connectable%3D%220%22%20parent%3D%221%22%3E%3CmxGeometry%20x%3D%22450%22%20y%3D%22678%22%20as%3D%22geometry%22%2F%3E%3C%2FmxCell%3E%3C%2Froot%3E%3C%2FmxGraphModel%3E&lt;/span&gt;" style="edgeLabel;html=1;align=center;verticalAlign=middle;resizable=0;points=[];" vertex="1" connectable="0" parent="xh2tAUFrgbrYJssjRWNV-37">
          <mxGeometry x="-0.7102" y="-2" relative="1" as="geometry">
            <mxPoint as="offset" />
          </mxGeometry>
        </mxCell>
        <mxCell id="xh2tAUFrgbrYJssjRWNV-22" value="otel-collector" style="ellipse;whiteSpace=wrap;html=1;aspect=fixed;" vertex="1" parent="1">
          <mxGeometry x="320" y="910" width="80" height="80" as="geometry" />
        </mxCell>
        <mxCell id="xh2tAUFrgbrYJssjRWNV-30" value="otel-collector" style="ellipse;whiteSpace=wrap;html=1;aspect=fixed;fillColor=#fff2cc;strokeColor=#d6b656;" vertex="1" parent="1">
          <mxGeometry x="570" y="770" width="80" height="80" as="geometry" />
        </mxCell>
        <mxCell id="xh2tAUFrgbrYJssjRWNV-31" value="otel-collector" style="ellipse;whiteSpace=wrap;html=1;aspect=fixed;" vertex="1" parent="1">
          <mxGeometry x="570" y="900" width="80" height="80" as="geometry" />
        </mxCell>
        <mxCell id="xh2tAUFrgbrYJssjRWNV-34" value="&lt;b&gt;otel-collector-cluster&lt;/b&gt;" style="text;html=1;align=center;verticalAlign=middle;whiteSpace=wrap;rounded=0;" vertex="1" parent="1">
          <mxGeometry x="548" y="980" width="122" height="30" as="geometry" />
        </mxCell>
        <mxCell id="xh2tAUFrgbrYJssjRWNV-43" value="trace" style="edgeLabel;html=1;align=center;verticalAlign=middle;resizable=0;points=[];" vertex="1" connectable="0" parent="1">
          <mxGeometry x="470" y="830" as="geometry">
            <mxPoint x="-26" y="-23" as="offset" />
          </mxGeometry>
        </mxCell>
        <mxCell id="xh2tAUFrgbrYJssjRWNV-44" value="trace" style="edgeLabel;html=1;align=center;verticalAlign=middle;resizable=0;points=[];" vertex="1" connectable="0" parent="1">
          <mxGeometry x="440" y="920" as="geometry">
            <mxPoint x="7" y="31" as="offset" />
          </mxGeometry>
        </mxCell>
      </root>
    </mxGraphModel>
  </diagram>
</mxfile>
